<svg width="169" height="212" viewBox="0 0 169 212" fill="none" xmlns="http://www.w3.org/2000/svg">
<g clip-path="url(#clip0)">
<path d="M121.177 14.4553C121.177 22.4278 110.765 28.8942 97.9349 28.8942C94.7618 28.9038 91.6015 28.4909 88.537 27.6664C86.1229 27.8917 83.7296 28.3022 81.3782 28.8942C81.3782 28.8942 84.0586 26.0621 83.1434 25.6201C77.9786 22.9189 74.6934 18.9408 74.6934 14.4553C74.6934 6.54826 85.0883 0 97.9349 0C110.782 0 121.177 6.54826 121.177 14.4553Z" fill="#CDE0FE"/>
<path d="M91.2336 14.7336C91.2368 15.1267 91.1231 15.512 90.9071 15.8402C90.691 16.1685 90.3823 16.4249 90.0203 16.5768C89.6583 16.7288 89.2593 16.7694 88.8741 16.6935C88.489 16.6176 88.1351 16.4286 87.8576 16.1506C87.58 15.8726 87.3913 15.5181 87.3155 15.1323C87.2397 14.7466 87.2803 14.3469 87.432 13.9843C87.5837 13.6217 87.8397 13.3125 88.1674 13.0961C88.4951 12.8797 88.8797 12.7659 89.2723 12.7691C89.7911 12.7734 90.2875 12.9817 90.6544 13.3492C91.0213 13.7167 91.2293 14.2139 91.2336 14.7336Z" fill="white"/>
<path d="M100.157 14.7336C100.161 15.1267 100.047 15.512 99.8309 15.8402C99.6149 16.1685 99.3062 16.4249 98.9441 16.5768C98.5821 16.7288 98.1831 16.7694 97.798 16.6935C97.4128 16.6176 97.059 16.4286 96.7814 16.1506C96.5038 15.8726 96.3151 15.5181 96.2394 15.1323C96.1636 14.7466 96.2041 14.3469 96.3558 13.9843C96.5075 13.6217 96.7635 13.3125 97.0913 13.0961C97.419 12.8797 97.8036 12.7659 98.1961 12.7691C98.7149 12.7734 99.2113 12.9817 99.5782 13.3492C99.9451 13.7167 100.153 14.2139 100.157 14.7336Z" fill="white"/>
<path d="M109.082 14.7336C109.085 15.1267 108.972 15.512 108.756 15.8402C108.54 16.1685 108.231 16.4249 107.869 16.5768C107.507 16.7288 107.108 16.7694 106.723 16.6935C106.338 16.6176 105.984 16.4286 105.706 16.1506C105.429 15.8726 105.24 15.5181 105.164 15.1323C105.088 14.7466 105.129 14.3469 105.281 13.9843C105.432 13.6217 105.688 13.3125 106.016 13.0961C106.344 12.8797 106.728 12.7659 107.121 12.7691C107.64 12.7734 108.136 12.9817 108.503 13.3492C108.87 13.7167 109.078 14.2139 109.082 14.7336Z" fill="white"/>
<path d="M90.4821 203.225C119.771 210.936 151.937 222.412 165.666 191.422C173.838 173.136 164.849 157.437 161.776 145.093C154.061 117.263 152.525 83.3267 124.772 72.5057C92.4108 58.607 83.1599 94.1313 60.0327 108.046C44.62 115.773 18.3384 87.7304 4.46211 106.262C-4.26574 120.406 13.4678 128.772 14.2687 141.475C15.707 164.214 -6.83179 166.604 2.10853 189.245C8.27033 198.511 24.5819 197.61 35.3692 200.704C40.4849 203.258 43.002 206.958 46.1564 210.527C50.6184 210.527 46.3035 211.083 50.6511 210.658L54.3776 210.396L55.1131 210.298C63.1708 199.624 76.5568 199.231 90.4821 203.225Z" fill="#F1EFEF"/>
<path d="M89.3211 191.422C109.376 196.055 126.325 213.031 146.363 200.688C152.541 194.5 161.792 186.789 158.703 177.523C155.614 172.89 146.363 174.429 146.363 172.89C143.29 154.359 144.826 134.239 134.023 117.296C126.325 104.936 107.872 94.1312 97.0356 104.936C78.5339 121.929 56.9594 106.573 41.465 120.39C30.6778 131.194 38.3923 148.22 27.5887 163.625C24.516 166.702 24.516 174.429 27.5887 179.062C39.0297 187.64 53.0695 194.909 51.4187 210.658L54.3116 210.461L55.0471 210.363C55.2923 210.035 55.5702 209.757 55.8153 209.446C63.5789 198.412 74.4642 188.934 89.3211 191.422Z" fill="#C0C0C0"/>
<path d="M121.798 84.8326C125.573 73.6678 120.556 83.7031 119.215 86.0768C119.738 84.2433 118.725 83.5721 118.218 83.9486C116.686 86.9636 115.732 90.2399 115.407 93.6073C115.407 93.6073 114.721 95.9319 107.104 106.573C105.274 108.93 103.835 110.927 102.757 112.663C100.338 104.003 97.0851 93.8365 97.0851 93.8365C97.0851 93.8365 92.3616 91.561 87.8506 96.5868C92.0674 114.709 94.7315 119.997 97.6572 125.743C98.1334 126.666 98.7892 127.484 99.5858 128.149C100.204 128.839 101.066 129.261 101.988 129.328H102.217C102.769 129.341 103.319 129.275 103.852 129.132C104.13 128.755 105.617 128.002 105.944 127.658C110.684 122.747 117.27 101.874 119.509 97.3562C121.749 92.8379 125.181 93.4272 124.952 89.6456C124.723 85.864 123.971 85.6675 121.798 84.8326Z" fill="url(#paint0_linear)"/>
<path d="M97.199 209.872V210.608C92.5408 211.018 88.8797 211.934 84.1235 212C83.7033 212.042 83.279 211.994 82.8788 211.859C82.4786 211.724 82.1117 211.505 81.8025 211.217C81.4932 210.929 81.2488 210.578 81.0854 210.188C80.9219 209.798 80.8433 209.378 80.8547 208.955C80.9527 207.727 81.1162 206.532 81.296 205.321C81.3209 205.136 81.3209 204.949 81.296 204.764C80.397 192.732 79.4491 180.339 79.0895 175.608C78.9914 174.331 78.9424 173.627 78.9424 173.627L94.7964 175.166C96.4308 175.33 101.775 168.339 101.906 169.714C103.508 185.512 98.6536 203.504 97.199 209.872Z" fill="url(#paint1_linear)"/>
<g style="mix-blend-mode:multiply" opacity="0.2">
<path d="M84.0095 157.338L80.0869 157.044C80.0869 157.044 81.182 179.962 82.1953 189.932C81.4899 193.362 81.3464 196.884 81.7704 200.36C88.0629 180.601 83.8461 171.548 84.0095 157.338Z" fill="#EF9D78"/>
</g>
<path d="M82.5555 206.139C82.3103 207.007 82.0488 207.94 81.7546 208.922C81.5032 209.713 80.9869 210.393 80.293 210.846C79.5991 211.299 78.7702 211.499 77.9464 211.411C73.419 210.969 69.4474 210.216 65.6391 209.643C64.0047 209.381 54.0674 169.502 54.0674 169.502L80.2182 175.543L83.34 176.639C83.34 176.639 84.6802 186.74 82.5555 206.139Z" fill="url(#paint2_linear)"/>
<path d="M96.5454 70.2955C96.1135 69.8982 95.7094 69.4715 95.336 69.0186C88.6512 60.9152 96.6435 49.603 90.1548 41.0903C85.4313 35.2951 77.3409 31.3661 71.1301 35.8026C70.607 36.1627 68.3025 35.8026 67.6324 35.9335C64.9614 36.2617 62.3919 37.1605 60.0977 38.5692C54.9165 41.8433 52.8245 47.5731 51.9255 53.3847C50.8468 59.9329 49.6537 66.0392 45.0773 71.245C43.6902 72.636 42.3911 74.1123 41.1873 75.6651C40.5866 76.4457 40.1483 77.339 39.8984 78.2923C39.6485 79.2455 39.5922 80.2393 39.7327 81.2148C40.174 83.3593 41.9718 85.0782 42.2987 87.2555C42.7891 90.5297 39.9778 93.1981 38.8501 96.063C38.2046 97.6257 37.8901 99.3057 37.9267 100.997C37.9633 102.687 38.3501 104.352 39.0626 105.885C40.5344 108.789 42.5808 111.362 45.0773 113.449C47.4141 115.689 50.0893 117.545 53.0042 118.949C55.9397 120.343 59.2352 120.79 62.4349 120.226C64.7295 119.636 66.9302 118.727 68.9726 117.525C69.7571 117.099 70.607 116.281 70.2148 115.511C72.8135 116.199 75.2652 117.361 77.8149 118.212C80.3394 119.183 83.0822 119.438 85.7419 118.949C89.0568 117.888 91.8887 115.684 93.7342 112.728C95.7446 109.929 97.33 106.802 99.5855 104.183C101.841 101.563 104.489 99.6481 106.581 96.9961C108.499 94.2156 109.52 90.9133 109.506 87.5338C109.604 85.6643 109.333 83.7938 108.707 82.0296C108.082 80.2654 107.115 78.6422 105.862 77.2531C103.214 74.4209 99.373 72.8985 96.5454 70.2955Z" fill="#1E1713"/>
<path d="M102.234 75.5832C107.399 77.515 108.674 83.3757 109.344 89.4492C109.431 88.8139 109.485 88.1746 109.507 87.5338C109.605 85.6643 109.333 83.7938 108.708 82.0296C108.082 80.2654 107.115 78.6422 105.862 77.253C103.215 74.4209 99.3248 72.8984 96.5462 70.2955C96.1143 69.8981 95.7102 69.4715 95.3368 69.0186C88.6519 60.9151 96.6443 49.603 90.1556 41.0903C89.0292 39.7166 87.7456 38.4804 86.3311 37.4069C89.8941 50.9945 84.811 68.9204 102.234 75.5832Z" fill="#2B221E"/>
<path d="M90.433 82.6881C90.433 82.6881 85.8892 81.051 84.1894 86.6825C82.4896 92.314 92.0183 110.305 92.0183 110.305C92.0183 110.305 101.024 108.783 104.375 105.394C100.06 96.5868 98.932 86.2078 90.433 82.6881Z" fill="white"/>
<path d="M68.9568 73.0294C68.9568 73.0294 68.9568 78.8082 67.6982 81.1001C67.6982 81.1001 70.7383 86.0113 78.5835 85.291C81.3065 84.8988 83.7754 83.4749 85.4808 81.3129C84.1116 78.6881 83.479 75.7404 83.6503 72.7838C82.5716 73.3732 74.3667 75.3049 68.9568 73.0294Z" fill="#FFC9AE"/>
<g style="mix-blend-mode:multiply" opacity="0.3">
<path d="M83.568 73.9952C83.5361 73.5921 83.5361 73.187 83.568 72.7838C82.4893 73.3732 74.2844 75.3049 68.8581 73.0294C68.8581 73.0294 68.8581 78.8082 67.5996 81.1001C68.2168 81.9687 68.9867 82.7175 69.8715 83.3102C75.4071 81.9567 80.2699 78.6495 83.568 73.9952Z" fill="#EF9D78"/>
</g>
<path d="M94.2563 136.204C93.2757 132.602 93.0305 124.417 93.9785 114.595C98.5058 110.371 98.6693 106.949 97.9665 103.135C96.332 94.2622 91.3307 95.9483 89.7943 82.5244C85.7409 81.2639 88.3397 82.5244 78.2226 85.111C67.3209 86.879 64.7222 82.3771 64.7222 82.3771C64.7222 82.3771 53.8369 82.1642 51.2872 95.2116C50.7642 97.9455 53.1504 101.76 54.1638 104.134C56.4173 109.053 58.1537 114.194 59.3449 119.473C60.002 122.377 60.3796 125.337 60.4727 128.313C60.4727 131.587 59.2305 133.748 58.1518 136.629C55.5694 143.325 53.3466 147.172 51.7285 154.179C49.1134 165.475 48.9009 174.577 49.4403 186.167C49.8162 194.172 49.8979 200.901 49.4403 202.243C52.7091 203.716 56.6154 199.64 60.0477 200.917C60.5733 201.172 61.1202 201.38 61.6821 201.539C62.5742 201.607 63.4652 201.395 64.2319 200.933C65.9734 199.918 67.9538 199.387 69.9687 199.395C71.4552 199.688 72.9109 200.121 74.3163 200.688C79.7753 202.325 85.2833 199.738 90.3991 198.118C93.0112 197.13 95.7791 196.62 98.5712 196.611C100.059 196.71 107.838 197.446 108.378 194.713C112.186 173.529 103.736 150.61 94.2563 136.204Z" fill="#698ED5"/>
<g style="mix-blend-mode:multiply">
<path d="M75.1834 116.723C61.585 114.595 65.7855 96.2267 54.3281 87.7794C52.7562 89.9699 51.7001 92.4885 51.239 95.1462C50.716 97.8801 53.1023 101.694 54.1156 104.068C56.3692 108.987 58.1056 114.128 59.2968 119.408C59.9745 122.331 60.3686 125.314 60.4736 128.313C60.4736 131.587 59.2314 133.748 58.1527 136.629C56.5182 140.919 55.0309 144.045 53.7234 147.581C60.4863 138.853 66.3253 129.444 71.1464 119.506C71.1464 118.998 74.2681 117.116 75.1834 116.723Z" fill="#E6E7E8"/>
</g>
<path d="M78.1739 85.1275C74.288 84.3972 70.8014 82.2728 68.3673 79.1522C67.8606 78.3991 63.938 79.4305 64.0851 82.9502C64.2322 86.4698 73.3686 95.2281 78.1739 85.1275Z" fill="white"/>
<path d="M78.1748 85.1274C80.623 83.164 82.6565 80.7321 84.1568 77.9735C85.1702 77.335 88.3736 79.1194 88.6842 81.8697C88.9947 84.62 85.4807 92.9854 78.1748 85.1274Z" fill="white"/>
<path d="M88.2586 57.0026C88.9308 59.7851 88.886 62.6932 88.1283 65.4536C87.3707 68.2141 85.9252 70.7364 83.9274 72.7839C82.293 74.4209 82.6199 75.7142 79.2203 76.3527C62.1078 76.942 59.2966 59.5073 59.0841 53.7284C58.8716 47.9496 90.0402 29.1561 88.2586 57.0026Z" fill="url(#paint3_linear)"/>
<g style="mix-blend-mode:multiply" opacity="0.3">
<path d="M79.3513 46.0506C79.3513 46.0506 78.5994 54.236 68.2699 56.8716C63.5954 57.9848 61.7321 62.5031 60.8822 69.0187C58.2181 65.2698 51.8275 54.0722 58.9536 44.8392C63.1051 40.9266 75.1835 35.7044 79.3513 46.0506Z" fill="#EF9D78"/>
</g>
<g style="mix-blend-mode:multiply" opacity="0.3">
<path d="M78.0277 46.7382C78.0277 46.7382 78.6978 50.1269 83.9933 51.895C86.2325 52.7135 91.904 53.9085 92.7048 57.0026C94.3393 53.4829 92.7048 42.0889 83.6664 37.9963C74.628 33.9036 72.0293 39.6333 72.0293 39.6333L78.0277 46.7382Z" fill="#EF9D78"/>
</g>
<path d="M77.7333 45.6414C77.7333 45.6414 78.4034 49.3248 83.9114 51.2402C86.2487 52.1242 92.0836 53.4011 92.9662 56.7735C94.6987 52.9428 93.0642 40.5174 83.6172 36.1137C74.1702 31.71 71.5225 37.98 71.5225 37.98L77.7333 45.6414Z" fill="#332B28"/>
<path d="M61.3555 98.6987C61.3555 98.6987 63.1697 121.356 62.7447 128.477C62.3198 135.598 64.8041 137.415 62.3525 152.133C60.7181 165.131 61.192 167.488 61.192 167.488C61.192 167.488 64.657 170.648 63.2841 177.311C63.0063 177.884 61.5026 177.687 61.3391 173.676C60.7507 176.41 61.617 177.523 62.8918 181.027C64.1667 184.53 57.1713 182.255 55.1937 179.03C53.216 175.805 55.1937 170.157 55.0793 165.115C54.9649 160.072 51.4672 139.511 52.7257 131.489C53.7554 124.794 51.222 124.008 51.2384 103.037C54.2211 100.81 57.6882 99.3237 61.3555 98.6987Z" fill="url(#paint4_linear)"/>
<path d="M57.6627 89.793C57.6627 89.793 53.7074 86.9936 50.6674 92.0521C47.6273 97.1107 50.8472 117.034 50.8472 117.034C50.8472 117.034 61.2748 117.738 65.3936 115.298C63.3669 105.771 64.9686 95.3917 57.6627 89.793Z" fill="white"/>
<path d="M78.9425 44.79C79.1059 45.2975 78.5829 46.4271 78.4195 46.8691C77.8064 48.5498 76.8488 50.0834 75.6082 51.371C73.7522 53.1308 71.5145 54.4364 69.0705 55.1854C66.3506 56.2065 64.1153 58.2175 62.8107 60.8169C62.0898 62.2794 61.6825 63.8768 61.6149 65.5064C61.5474 67.1361 61.8211 68.7618 62.4184 70.2791C63.8404 73.8152 71.228 81.9514 69.6099 86.1587C68.9071 88.0086 66.8967 85.4384 66.341 87.3046C65.592 89.1833 64.5733 90.9426 63.3173 92.5269C61.5636 95.1535 59.2811 97.3839 56.6162 99.0751C52.502 101.561 47.668 102.577 42.9033 101.956C44.4601 100.763 45.5804 99.0885 46.0905 97.1925C46.6625 94.6387 45.6655 92.0194 44.8973 89.5147C44.0843 86.719 43.9111 83.7757 44.3907 80.9037C44.9464 77.4331 47.6595 75.043 49.2939 72.1126C52.1378 67.1196 51.386 61.1116 51.6148 55.611C51.6302 50.2363 53.7279 45.0773 57.4661 41.2212C61.5031 37.2431 74.2517 30.1055 78.9425 44.79Z" fill="#332B28"/>
</g>
<defs>
<linearGradient id="paint0_linear" x1="87.8506" y1="104.477" x2="124.936" y2="104.477" gradientUnits="userSpaceOnUse">
<stop stop-color="#FFDDCC"/>
<stop offset="1" stop-color="#FFBC97"/>
</linearGradient>
<linearGradient id="paint1_linear" x1="915.534" y1="6018.11" x2="1659.98" y2="5555.79" gradientUnits="userSpaceOnUse">
<stop stop-color="#FFDDCC"/>
<stop offset="1" stop-color="#FFBC97"/>
</linearGradient>
<linearGradient id="paint2_linear" x1="1231.86" y1="5854.27" x2="1408.29" y2="4626.52" gradientUnits="userSpaceOnUse">
<stop stop-color="#FFDDCC"/>
<stop offset="1" stop-color="#FFBC97"/>
</linearGradient>
<linearGradient id="paint3_linear" x1="1130.88" y1="1280.61" x2="1669.6" y2="1280.61" gradientUnits="userSpaceOnUse">
<stop stop-color="#FFDDCC"/>
<stop offset="1" stop-color="#FFBC97"/>
</linearGradient>
<linearGradient id="paint4_linear" x1="438.962" y1="7331.31" x2="532.461" y2="7331.31" gradientUnits="userSpaceOnUse">
<stop stop-color="#FFDDCC"/>
<stop offset="1" stop-color="#FFBC97"/>
</linearGradient>
<clipPath id="clip0">
<rect width="169" height="212" fill="white"/>
</clipPath>
</defs>
</svg>
