<svg width="209" height="207" viewBox="0 0 209 207" fill="none" xmlns="http://www.w3.org/2000/svg">
<path d="M192.163 20.1611C192.163 30.5826 178.565 39.0468 161.791 39.0468C157.647 39.0623 153.518 38.5253 149.515 37.4501C148.417 37.1411 140.158 39.0468 140.158 39.0468C140.158 39.0468 143.592 35.3555 142.459 34.7374C135.712 31.3036 131.402 26.05 131.402 20.1954C131.402 9.77393 145.017 1.30969 161.791 1.30969C178.565 1.30969 192.163 9.73959 192.163 20.1611Z" fill="#CDE0FE"/>
<path d="M121.908 189.326C116.122 188.124 110.525 186.939 104.086 187.609C91.1581 189.016 78.23 190.476 65.3019 191.901C58.1253 192.708 44.0812 194.219 37.1278 192.073C6.87633 182.87 -7.45964 147.279 3.85462 123.603C11.2029 108.151 9.62335 93.6264 5.91488 79.7368C-1.36471 52.5414 11.22 18.2209 35.2392 7.83377C52.7686 0.245142 73.1137 -3.44616 90.5744 4.26265C102.593 9.55065 113.649 20.5902 120.311 32.9689C127.573 46.4465 131.745 57.0053 146.923 61.452C158.752 64.8858 171.234 63.8042 183.372 65.418C188.9 66.1563 195.064 68.0105 197.708 73.5217C201.725 81.8314 195.184 91.3601 193.433 100.597C191.218 112.272 198.24 119.929 202.653 129.389C207.803 140.463 211.237 153.546 205.726 165.444C203.092 170.659 199.262 175.177 194.549 178.629C176.401 192.364 153.344 193.292 132.277 191.18C128.79 190.749 125.328 190.13 121.908 189.326Z" fill="#F1EFEF"/>
<path d="M185.432 165.306C183.715 158.593 165.258 158.593 163.576 146.833C160.176 131.707 176.968 123.294 180.281 108.151C182.582 98.9658 183.904 82.003 170.821 81.1102C160.022 80.3548 150.768 89.0594 140.055 90.5874C136.742 90.9824 133.384 90.6924 130.188 89.7355C126.993 88.7786 124.028 87.1752 121.478 85.0247C115.692 80.2346 114.353 74.7234 113.117 67.6842C111.846 60.3531 110.37 50.6012 103.502 46.2575C100.983 44.7916 98.2815 43.6659 95.4671 42.9096C77.766 37.4499 59.4126 36.0421 44.5443 49.3136C39.2735 54.0522 35.1702 60.6622 35.3762 67.7357C35.6681 77.6078 43.9606 85.6428 45.2654 95.4634C45.8722 102.169 43.798 108.843 39.4967 114.023C32.7322 122.607 23.3408 128.565 18.276 138.677C9.34823 156.533 18.4649 177.427 32.406 189.789C34.3867 190.713 36.4289 191.499 38.5181 192.141C45.3856 194.219 59.1207 192.742 66.0912 191.969L104.069 187.746C109.938 187.366 115.83 187.946 121.512 189.463C124.866 190.222 128.259 190.795 131.676 191.18C146.338 192.656 161.945 192.622 176.126 187.746C184.367 183.093 188.866 176.277 185.432 165.306Z" fill="#C0C0C0"/>
<path d="M100.189 198.391C99.7938 198.494 105.442 185.325 105.442 185.325H106.043L118.748 189.428C118.633 189.499 118.523 189.579 118.422 189.669C118.523 189.579 118.633 189.499 118.748 189.428L119.212 189.583H120.705C121.617 190.018 122.452 190.598 123.178 191.3C124.259 196.725 120.139 199.884 115.4 201.395L114.25 200.897C114.25 200.897 100.584 198.288 100.189 198.391Z" fill="white"/>
<path d="M123.178 190.905C122.447 190.209 121.613 189.63 120.705 189.188C125.976 189.033 143.506 188.639 146.939 190.733C151.008 193.206 152.983 195.386 152.88 197.601C152.777 199.816 150.304 207.507 136.346 205.928C125.41 204.674 114.027 202.854 115.4 200.966C120.19 199.541 124.259 196.347 123.178 190.905Z" fill="#EF6A6A"/>
<path d="M115.402 201.361C117.585 200.754 119.585 199.615 121.222 198.047C127.677 200.245 133.24 199.919 139.678 199.919C140.399 199.077 141.395 194.768 140.073 193.841C136.639 191.506 127.265 192.124 123.179 191.266C122.453 190.564 121.618 189.984 120.707 189.549C125.978 189.377 143.507 188.982 146.941 191.077C151.01 193.549 152.984 195.73 152.881 197.944C152.778 200.159 150.306 207.851 136.348 206.271C125.342 205.069 114.062 203.249 115.402 201.361Z" fill="#FA7070"/>
<path d="M146.424 190.819C146.601 190.889 146.773 190.969 146.939 191.059C151.008 193.532 152.983 195.712 152.88 197.927C152.88 199.644 151.455 204.108 145.274 205.807C145.017 200.863 144.347 195.849 146.424 190.819Z" fill="#F1F2F2"/>
<path d="M67.2414 162.439C67.2414 162.439 56.2706 171.831 59.773 174.99C61.4899 176.604 79.6545 190.871 79.6545 190.871C79.6545 190.871 93.5956 185.085 102.832 190.871C111.142 191.798 124.362 183.042 128.809 175.11C130.629 171.848 124.894 164.98 121.804 162.868L117.014 162.061L67.911 161.855L67.2414 162.439Z" fill="#26256C"/>
<path d="M83.6721 80.2519C83.8193 80.088 83.9409 79.9028 84.0326 79.7025C84.0803 79.4977 84.1434 79.2968 84.2215 79.1016C84.3062 78.9286 84.3807 78.7509 84.4447 78.5693C85.3374 75.3072 85.1658 69.1265 85.3203 67.3237C85.3203 67.3237 89.664 67.5641 94.042 67.6671C98.4201 67.7701 102.781 67.3237 102.781 67.3237C102.935 69.1265 102.781 75.3072 103.657 78.5693L103.863 79.1016C103.947 79.2962 104.016 79.4971 104.069 79.7025C104.16 79.9028 104.282 80.088 104.429 80.2519C106.009 81.9687 123.487 86.3983 125.65 90.5532C123.624 97.6954 64.7863 97.8499 62.8291 90.6905C64.9752 86.467 82.0925 81.9344 83.6721 80.2519Z" fill="#FFC9AE"/>
<g style="mix-blend-mode:multiply" opacity="0.3">
<path d="M62.7612 90.6219C64.8901 86.4499 82.1792 82.0375 83.7244 80.3206C83.8678 80.1502 83.9943 79.9662 84.1021 79.7712C84.1387 79.5656 84.1963 79.3642 84.2738 79.1703C84.3585 79.0033 84.433 78.8313 84.497 78.6552C85.3897 75.4275 85.218 69.3326 85.3554 67.547C85.3554 67.547 89.6648 67.7874 93.9398 67.8732C98.2149 67.9591 102.524 67.547 102.524 67.547C102.662 69.2639 102.679 73.9338 103.194 77.3676C97.0302 84.8532 77.8526 88.3556 64.7871 92.4246C63.6025 91.8752 62.8471 91.2572 62.6582 90.5532" fill="#EF9D78"/>
</g>
<path d="M93.4241 104.803C102.764 104.803 110.816 94.7422 110.816 85.6943C110.817 84.4333 110.667 83.1769 110.37 81.9515C109.202 81.7454 107.966 81.5394 106.627 81.3849C103.639 84.6855 99.6086 86.8611 95.2096 87.5485C94.8147 87.5485 94.231 89.9521 94.231 93.0425C93.7503 91.1196 93.0463 87.703 92.6515 87.703C90.3479 87.5514 88.1044 86.9038 86.0745 85.8044C84.0446 84.705 82.2764 83.1798 80.8908 81.3334C80.8908 81.3334 79.4315 81.6939 77.354 82.2605C77.1071 83.3882 76.9861 84.5398 76.9935 85.6943C76.9935 94.7422 84.1357 104.803 93.4241 104.803Z" fill="#E9EFF4"/>
<path d="M144.965 125.32C144.055 122.11 134.371 95.0171 127.057 88.2869C126.663 87.9264 122.594 86.0378 121.907 85.6773L121.409 85.4197C118.724 84.1087 115.895 83.1175 112.979 82.4667C112.172 82.2778 111.262 82.1061 110.455 81.9344C110.747 83.1363 103.33 94.4505 93.9903 94.4505C84.6504 94.4505 77.1992 83.3766 77.4395 82.2778L75.4308 82.8444C72.3569 83.6742 69.3307 84.6715 66.3656 85.8318C65.6825 86.0976 65.0173 86.4073 64.3741 86.7589C63.2622 87.2609 62.184 87.8344 61.1463 88.4758C53.8324 95.1545 46.9649 115.019 46.9649 115.019C43.0504 123.844 44.2693 133.389 47.085 135.072C59.4981 142.506 65.8506 124.565 65.8506 124.565C65.7647 126.282 65.593 141.94 66.1081 150.799C66.6232 159.658 67.9795 161.855 67.825 161.855C67.6705 161.855 106.352 162.027 117.014 162.027C120.86 159.658 121.907 123.38 120.465 112.787C124.774 121.182 129.152 130.196 129.152 130.196L128.774 157.494C131.436 160.362 137.839 159.211 142.303 159.538C144.484 141.167 145.497 127.037 144.965 125.32Z" fill="#698ED5"/>
<g style="mix-blend-mode:multiply">
<path d="M73.8343 128.05C69.7824 125.183 70.4005 110.881 70.4005 102.297C67.0697 113.92 63.7046 131.964 49.4717 136.205C60.2709 140.085 65.7821 124.53 65.7821 124.53C65.6962 126.247 65.9194 141.888 66.4173 150.764C66.5401 154.482 66.9882 158.182 67.7565 161.821H70.0571C68.3574 150.198 73.8343 139.416 73.8343 128.05Z" fill="#26256C"/>
</g>
<path d="M104.101 77.8311C104.101 77.8311 104.685 84.6986 95.208 87.6001C99.071 89.214 103.295 97.9014 103.295 97.9014C103.295 97.9014 110.162 89.317 109.063 81.5739C107.484 80.2307 105.827 78.9809 104.101 77.8311Z" fill="#4D6CA8"/>
<path d="M84.1352 77.8311C84.1352 77.8311 83.2252 84.8359 92.7196 87.7546C88.8566 89.3513 88.1012 99.1204 88.1012 99.1204C88.1012 99.1204 76.7526 89.7806 79.6713 81.6425C81.1478 80.2175 84.1352 77.8311 84.1352 77.8311Z" fill="#4D6CA8"/>
<path d="M93.801 172.294C93.801 172.294 50.072 158.267 35.8047 162.439C21.5374 166.611 18.3783 190.562 67.6357 196.794C116.893 203.026 114.798 202.58 114.798 202.58C114.798 202.58 123.074 186.939 115.829 178.87C103.845 174.698 93.801 172.294 93.801 172.294Z" fill="#29457B"/>
<path d="M112.173 50.5497C112.186 58.2885 109.746 65.8323 105.202 72.0966C101.768 77.2473 98.6952 78.3461 93.6304 80.0114C81.4062 84.029 78.0239 82.7928 75.0194 77.7967C73.6974 75.5991 70.607 67.4954 71.2422 62.3447C71.5169 60.0784 71.1392 56.2154 71.4998 47.5452C72.1007 33.8101 83.3978 30.3763 93.6304 30.3763C103.863 30.3763 112.173 36.8318 112.173 50.5497Z" fill="url(#paint0_linear)"/>
<path d="M113.425 68.2509C111.296 71.7705 108.944 74.26 105.424 73.8651C105.544 70.4313 105.647 67.1349 105.767 63.7698C105.944 62.0271 105.726 60.2669 105.132 58.6192C104.812 57.7884 104.225 57.0869 103.464 56.6242C102.703 56.1615 101.811 55.9635 100.926 56.061C100.262 56.2627 99.6473 56.6004 99.1211 57.0527C98.595 57.5049 98.1688 58.0618 97.8697 58.6879C97.299 59.9402 96.5406 61.0981 95.6206 62.1216C95.6064 60.9989 95.3595 59.8913 94.8955 58.8689C94.4316 57.8464 93.7606 56.9312 92.9251 56.1812C91.3455 54.8592 88.2208 55.5631 86.1777 55.4086C82.5051 55.3708 78.8371 55.1358 75.1897 54.7047C71.9963 54.0866 68.6655 52.7646 67.0345 49.9661C65.4034 47.1676 64.9055 46.5323 66.3134 43.7853C67.7212 41.0383 70.7429 40.3515 73.1809 38.4115C75.9451 36.231 79.5162 31.1147 82.3319 28.9858C90.1952 23.0454 97.7839 25.552 100.651 26.3074C101.936 26.5957 103.15 27.1386 104.222 27.9041C105.052 28.7164 105.821 29.5886 106.523 30.5138C111.296 29.3807 119.073 32.6599 119.176 42.3946C119.228 46.6697 119.76 57.8809 113.425 68.2509Z" fill="#332B28"/>
<path d="M77.4047 198.391C77.7995 198.494 72.1166 185.411 72.1166 185.411H71.5329L58.8108 189.514C58.9264 189.585 59.0356 189.665 59.137 189.755C59.0356 189.665 58.9264 189.585 58.8108 189.514L58.3472 189.669H56.8536C55.9422 190.104 55.1073 190.684 54.3812 191.386C53.2996 196.811 57.4201 199.97 62.1587 201.481L63.309 200.983C63.309 200.983 77.0098 198.288 77.4047 198.391Z" fill="white"/>
<path d="M54.4169 190.905C55.1477 190.209 55.9816 189.63 56.8892 189.188C51.6183 189.034 34.089 188.639 30.6552 190.733C26.5862 193.206 24.6118 195.386 24.7148 197.601C24.8178 199.816 27.2901 207.559 41.214 206.014C52.1506 204.76 63.5335 202.94 62.16 201.052C57.4557 199.541 53.3352 196.348 54.4169 190.905Z" fill="#EF6A6A"/>
<path d="M62.1934 201.361C60.0096 200.754 58.0101 199.615 56.3731 198.047C49.9176 200.245 44.3549 199.919 37.9166 199.919C37.1955 199.078 36.2856 194.768 37.5217 193.841C40.8697 191.506 50.3297 192.124 54.4159 191.266C55.1419 190.564 55.9768 189.984 56.8882 189.549C51.6174 189.377 34.088 188.982 30.6542 191.077C26.5852 193.549 24.6108 195.73 24.7138 197.944C24.8168 200.159 27.2891 207.851 41.2474 206.271C52.1839 205.069 63.5325 203.25 62.1934 201.361Z" fill="#FA7070"/>
<path d="M31.1693 190.819C30.9931 190.889 30.8211 190.97 30.6542 191.06C26.5852 193.532 24.6108 195.712 24.7138 197.927C24.7138 199.644 26.1388 204.108 32.3196 205.808C32.6286 200.863 33.2467 195.85 31.1693 190.819Z" fill="#F1F2F2"/>
<path d="M91.8269 171.848C91.8269 171.848 135.642 157.821 149.823 161.993C164.005 166.165 167.25 190.064 117.992 196.33C68.7348 202.597 70.8294 202.116 70.8294 202.116C70.8294 202.116 62.5541 186.476 69.7993 178.406C81.7832 174.251 91.8269 171.848 91.8269 171.848Z" fill="#29457B"/>
<path d="M141.171 159.503C140.828 161.752 139.969 164.654 138.166 165.427C135.351 166.766 131.402 167.452 129.118 169.616C128.097 170.681 127.245 171.897 126.595 173.221C126.429 173.549 126.215 173.85 125.959 174.114C125.827 174.24 125.664 174.331 125.487 174.376C125.309 174.421 125.123 174.419 124.946 174.372C124.346 174.165 124.243 173.359 124.26 172.655C123.57 173.159 122.841 173.607 122.079 173.994C121.339 174.667 120.468 175.181 119.521 175.505C119.392 175.555 119.252 175.568 119.116 175.544C118.979 175.52 118.852 175.459 118.748 175.367C118.644 175.216 118.59 175.036 118.594 174.852C118.594 173.633 118.457 172.414 118.457 171.195C118.361 169.898 118.579 168.596 119.092 167.401C120.259 165.066 122.852 163.83 125.187 162.662C130.337 160.018 129.324 157.941 129.479 158.044C132.209 160.018 137.205 159.435 141.171 159.503Z" fill="url(#paint1_linear)"/>
<path d="M64.2373 89.6774C64.2373 89.6774 64.2373 78.8439 67.8599 81.299C67.8599 81.299 68.5467 80.8526 68.581 80.8183C68.8855 80.6496 69.178 80.4603 69.4566 80.2517C70.0145 79.8251 70.5423 79.3604 71.0362 78.8611C71.9927 77.8443 72.8816 76.7661 73.6973 75.6333C73.972 75.2556 74.3669 74.8435 74.8305 74.9122C75.0014 74.9231 75.1642 74.9893 75.2943 75.1008C75.4244 75.2122 75.5147 75.363 75.5516 75.5303C75.646 75.8204 75.646 76.133 75.5516 76.4231C75.0624 77.7894 74.3801 79.0787 73.5256 80.2517C74.1443 80.2939 74.7389 80.508 75.2425 80.8698C75.4369 81.067 75.5696 81.3164 75.6245 81.5878C75.6794 81.8592 75.6541 82.1406 75.5516 82.3978C76.2015 82.5343 76.7978 82.8564 77.2684 83.325C77.5091 83.6089 77.651 83.9634 77.6726 84.335C77.6943 84.7066 77.5946 85.0752 77.3886 85.3852C77.7187 85.4075 78.0304 85.5453 78.269 85.7745C78.5076 86.0037 78.6579 86.3096 78.6935 86.6385C78.7346 87.2962 78.5856 87.9518 78.2642 88.5271C77.802 89.4015 77.2918 90.2498 76.7362 91.0681C76.2027 91.7962 75.5732 92.4488 74.8648 93.0082C73.8347 93.9353 72.7874 94.8624 71.6886 95.7037C71.219 96.0889 70.7259 96.4444 70.2121 96.7681L64.2373 89.6774Z" fill="url(#paint2_linear)"/>
<path d="M44.7505 123.037C47.4631 112.89 52.8198 103.704 61.1467 88.4242C69.9543 88.0808 75.0191 95.4634 75.0191 95.4634C75.0191 95.4634 66.9669 118.453 62.7606 128.479C58.5542 138.506 51.7725 137.201 50.9828 137.064C50.193 136.926 41.4025 135.621 44.7505 123.037Z" fill="#698ED5"/>
<path d="M169.878 17.6715C169.752 18.5757 169.315 19.4077 168.642 20.0236C168.199 20.3455 167.687 20.557 167.146 20.6406C166.605 20.7242 166.053 20.6775 165.534 20.5044C164.947 20.3702 164.373 20.1864 163.817 19.955C163.544 19.8474 163.263 19.7613 162.976 19.6974C162.738 19.6118 162.486 19.5751 162.234 19.5896C161.982 19.6041 161.735 19.6694 161.509 19.7817C161.283 19.894 161.082 20.0509 160.918 20.2429C160.754 20.435 160.63 20.6582 160.555 20.8992C160.489 21.0897 160.437 21.2848 160.4 21.483C160.24 22.5414 160.24 23.618 160.4 24.6764C159.777 24.8919 159.11 24.9451 158.46 24.8309C158.324 24.8192 158.193 24.7758 158.077 24.7043C157.961 24.6327 157.863 24.535 157.791 24.4189C156.804 22.8619 156.38 21.0139 156.589 19.1824C156.634 18.8811 156.739 18.5921 156.899 18.3325C157.058 18.0729 157.268 17.8481 157.516 17.6715C157.768 17.5104 158.051 17.4029 158.346 17.3556C158.641 17.3084 158.943 17.3224 159.233 17.3968L159.645 17.4998L160.04 17.5857C160.863 17.8324 161.741 17.8324 162.564 17.5857C163.23 17.2996 163.78 16.7976 164.126 16.1606C164.542 15.3643 164.898 14.5379 165.191 13.6883C165.282 13.4418 165.356 13.1894 165.414 12.9329C165.774 11.3019 164.985 10.2889 163.113 9.92836C162.46 9.81886 161.792 9.81886 161.139 9.92836C160.521 9.92836 160.194 10.1687 160.143 10.4263C160.091 10.6838 160.349 10.8726 160.898 11.2332C162.238 12.1088 162.804 12.9501 162.615 13.9287C162.512 14.3751 162.032 14.77 161.173 15.0962C160.141 15.4609 159.022 15.5087 157.963 15.2335C155.834 14.7871 154.958 13.6368 155.353 11.7998C155.51 11.1457 155.84 10.5458 156.308 10.0626C156.776 9.57944 157.365 9.2307 158.014 9.05275C159.818 8.43674 161.761 8.35329 163.611 8.81238C165.486 9.11698 167.207 10.0348 168.504 11.422C169.467 12.4645 170 13.8319 169.998 15.2507C170.039 16.0596 169.999 16.8707 169.878 17.6715ZM162.907 28.9514C162.804 29.4322 162.272 29.8957 161.276 30.3078C160.458 30.6539 159.587 30.8572 158.701 30.9087C158.405 30.9519 158.104 30.9519 157.808 30.9087C157.492 30.8559 157.192 30.7348 156.928 30.5539C156.664 30.373 156.443 30.1367 156.28 29.8614C156.12 29.609 156.011 29.3271 155.961 29.0323C155.911 28.7375 155.92 28.4357 155.988 28.1445C156.16 27.3376 156.812 26.8397 157.98 26.6336C158.745 26.4556 159.538 26.4264 160.315 26.5478C161 26.6873 161.639 27.0006 162.169 27.4577C162.416 27.616 162.616 27.8387 162.746 28.1019C162.876 28.3651 162.932 28.6588 162.907 28.9514Z" fill="white"/>
<defs>
<linearGradient id="paint0_linear" x1="71.1564" y1="56.4215" x2="112.173" y2="56.4215" gradientUnits="userSpaceOnUse">
<stop stop-color="#FFDDCC"/>
<stop offset="1" stop-color="#FFBC97"/>
</linearGradient>
<linearGradient id="paint1_linear" x1="-5340.81" y1="1860.55" x2="-5040" y2="1860.55" gradientUnits="userSpaceOnUse">
<stop stop-color="#FFDDCC"/>
<stop offset="1" stop-color="#FFBC97"/>
</linearGradient>
<linearGradient id="paint2_linear" x1="-3865.17" y1="1168.08" x2="-3742.67" y2="1168.08" gradientUnits="userSpaceOnUse">
<stop stop-color="#FFDDCC"/>
<stop offset="1" stop-color="#FFBC97"/>
</linearGradient>
</defs>
</svg>
