<svg width="288" height="191" viewBox="0 0 288 191" fill="none" xmlns="http://www.w3.org/2000/svg">
<g clip-path="url(#clip0)">
<path d="M214.609 168.502C218.901 158.552 216.168 145.722 206.794 139.579C200.133 135.209 191.529 134.665 183.633 132.832C154.559 126.064 134.313 101.371 107.123 89.6691C83.6577 79.5984 54.8476 80.2832 32.9009 93.0125C10.9541 105.742 -2.83341 130.636 0.48694 154.645C1.2158 159.862 5.14353 167.294 9.07126 174.222C12.0782 179.371 16.4039 183.635 21.6073 186.579C26.8106 189.523 32.7056 191.041 38.6912 190.98H181.304C186.252 191.026 191.15 190.001 195.659 187.977C200.169 185.953 204.182 182.978 207.422 179.258C210.342 176.048 212.765 172.423 214.609 168.502Z" fill="#C0C0C0"/>
<path d="M37.7804 103.426C30.5121 108.763 24.1548 117.001 26.1187 125.46C27.3942 130.898 31.9091 135.209 36.9301 138.169C45.2107 143.003 55.0503 145.017 64.7886 145.763C74.527 146.508 84.2856 146.407 93.9834 147.475C109.067 149.167 123.543 153.859 138.241 157.545C152.94 161.231 168.367 163.588 183.268 160.849C185.282 160.675 187.169 159.797 188.593 158.371C190.881 155.471 188.37 151.382 185.496 148.965C177.397 142.178 166.444 139.499 156.159 136.216C139.215 130.773 123.088 123.076 108.216 113.335C100.801 108.505 93.7314 103.168 87.0593 97.3631C84.407 95.0469 81.9978 91.7437 78.394 90.9783C74.7902 90.213 69.4857 91.22 65.7807 91.8243C55.656 93.4328 46.0596 97.4089 37.7804 103.426Z" fill="#616161"/>
<path d="M250.343 180.587C250.351 181.051 250.47 181.507 250.69 181.916C250.911 182.325 251.226 182.676 251.61 182.94C251.994 183.204 252.436 183.373 252.898 183.433C253.361 183.493 253.832 183.443 254.271 183.286L261.033 182.722C261.721 182.722 262.531 182.541 262.875 181.936C262.98 181.644 263.019 181.332 262.992 181.022C262.964 180.713 262.869 180.413 262.713 180.144L260.446 174.585C259.918 172.895 258.971 171.364 257.692 170.134C255.668 168.542 250.181 167.817 248.622 170.416C247.063 173.014 249.736 178.21 250.343 180.587Z" fill="#F7B690"/>
<path fill-rule="evenodd" clip-rule="evenodd" d="M286.38 189.228C286.336 188.333 285.984 187.48 285.383 186.813C284.782 186.146 283.969 185.704 283.08 185.562C281.295 185.323 279.489 185.283 277.695 185.441C275.12 185.38 272.609 184.64 270.417 183.295C268.225 181.95 266.433 180.049 265.223 177.787C264.974 177.128 264.538 176.554 263.968 176.136C263.533 175.953 263.053 175.901 262.589 175.987C262.125 176.073 261.696 176.293 261.356 176.619C260.627 177.203 260.121 178.029 259.453 178.633C258.849 179.221 258.133 179.684 257.348 179.995C256.562 180.306 255.723 180.46 254.877 180.446C253.46 180.446 251.901 179.358 250.545 180.063C249.188 180.768 249.026 182.339 248.723 183.507C248.196 185.522 247.731 187.536 247.224 189.55C247.105 190.006 247.024 190.47 246.981 190.94H256.76C257.233 189.898 257.574 188.802 257.773 187.677C257.809 188.814 258.1 189.928 258.623 190.94H285.469C285.955 190.485 286.275 189.883 286.38 189.228Z" fill="#29457B"/>
<path fill-rule="evenodd" clip-rule="evenodd" d="M263.403 163.507C265.266 162.399 266.703 160.708 268.505 159.479C272.008 157.143 276.603 156.861 280.248 154.927C282.259 153.866 283.997 152.358 285.328 150.521C286.658 148.684 287.546 146.566 287.921 144.333C288.114 143.891 288.172 143.403 288.086 142.929C288 142.455 287.775 142.016 287.44 141.669C287.104 141.322 286.672 141.082 286.2 140.979C285.727 140.876 285.234 140.915 284.783 141.09C277.818 142.016 276.684 145.118 269.882 147.011C268.08 147.515 260.184 148.099 256.641 150.375C253.098 152.651 253.644 154.544 253.847 156.176C254.049 157.807 255.568 163.125 257.248 163.97C258.236 164.393 259.311 164.572 260.383 164.491C261.455 164.41 262.491 164.073 263.403 163.507Z" fill="#29457B"/>
<path d="M252.732 149.972C252.454 149.605 252.268 149.178 252.187 148.726C252.107 148.273 252.135 147.808 252.269 147.369C252.403 146.929 252.64 146.527 252.959 146.196C253.279 145.864 253.673 145.612 254.109 145.461L259.717 141.654C259.918 141.375 260.204 141.167 260.532 141.061C260.86 140.954 261.214 140.955 261.542 141.063C261.87 141.171 262.154 141.38 262.354 141.661C262.554 141.941 262.658 142.277 262.652 142.621L264.414 148.361C265.069 150.004 265.298 151.783 265.082 153.537C264.555 156.015 260.729 160.043 257.854 159.016C254.979 157.988 253.764 152.208 252.732 149.972Z" fill="#F4A086"/>
<path d="M242.347 90.9178C240.907 87.8262 238.941 85.0053 236.536 82.5793L223.761 108.401C228.174 108.803 231.555 112.429 235.058 118.995C247.752 142.943 252.287 151.906 254.636 153.98C256.418 155.571 265.144 152.369 265.427 149.851C266.176 142.762 250.081 105.943 242.347 90.9178Z" fill="#29457B"/>
<path d="M141.563 145.743C146.766 147.898 170.393 143.144 175.778 141.473L199.466 134.081C203.232 132.913 211.958 127.535 215.663 129.126C220.563 131.281 242.793 170.375 247.733 174.867C249.373 176.357 259.718 175.008 260.123 171.584C260.528 168.16 247.105 136.095 241.74 123.245C239.845 118.277 237.451 113.513 234.593 109.025C231.701 104.543 227.517 101.033 222.587 98.9543C215.582 96.2755 157.354 112.288 154.905 114.423C151.341 117.444 136.076 143.467 141.563 145.743Z" fill="#26256C"/>
<path d="M123.867 106.608C120.749 108.94 118.458 112.199 117.327 115.913C115.772 120.86 115.751 126.158 117.268 131.116C118.785 136.074 121.769 140.462 125.831 143.708C134.03 150.033 155.734 149.751 167.942 139.881C176.041 133.396 168.266 127.998 165.918 117.968C164.703 112.932 161.545 108.018 156.665 106.185C150.591 103.869 144.356 107.071 138.14 106.326C132.613 105.661 129.414 102.721 123.867 106.608Z" fill="#29457B"/>
<path d="M233.033 80.2027C219.448 74.3818 156.463 96.7991 146.806 116.316C143.647 122.721 146.806 129.952 150.43 135.511C156.22 144.252 165.675 141.553 173.53 137.283C186.034 130.479 198.049 122.82 209.487 114.362C215.561 109.951 227.243 100.686 231.758 105.54L236.536 82.5793C235.514 81.5937 234.329 80.7899 233.033 80.2027Z" fill="#29457B"/>
<path fill-rule="evenodd" clip-rule="evenodd" d="M68.5939 87.9168C69.2417 82.1766 70.8614 76.537 70.8614 70.7162C70.9241 67.2003 69.9378 63.7448 68.027 60.7865C66.5085 58.6314 62.6213 55.3484 59.6654 56.2346C56.7094 57.1208 54.9885 62.8409 53.8547 65.4593C50.4789 73.1571 48.229 81.2963 47.1735 89.6288C47.0386 90.6896 46.9306 91.7571 46.8496 92.8313L68.4117 92.0257C68.3942 90.6537 68.455 89.2819 68.5939 87.9168Z" fill="#4D6CA8"/>
<path d="M108.385 114.659C102.837 111.597 96.2371 111.597 89.8798 111.094C83.5225 110.59 76.7199 109.201 72.6504 104.387C69.9484 100.835 68.5933 96.4484 68.8239 92L47.2619 92.8057C46.455 99.3231 47.5147 105.935 50.319 111.879C55.0364 120.782 65.0986 125.878 75.1204 127.227C85.1422 128.577 95.3665 126.744 105.226 124.911C108.202 124.367 111.847 123.159 112.231 120.158C112.515 117.801 110.47 115.807 108.385 114.659Z" fill="#FDD9C5"/>
<path fill-rule="evenodd" clip-rule="evenodd" d="M58.9988 56.5569C57.0295 59.5559 55.949 63.046 55.8809 66.6276C54.7673 82.8413 62.1976 98.6925 72.8875 110.777C83.5775 122.862 97.3448 132.087 111.153 140.627C113.845 142.298 116.882 144.01 119.98 143.406C124.434 142.54 126.56 137.545 127.937 133.336L133.727 115.208C135.038 112.135 135.445 108.755 134.901 105.46C133.565 100.485 128.362 97.766 123.806 95.3893C111.18 88.5889 99.9398 79.5041 90.6636 68.6014C87.6624 64.7359 84.366 61.1064 80.8037 57.7452C74.9121 52.7099 64.6272 49.0039 58.9988 56.5569Z" fill="#698ED5"/>
<path d="M61.2249 52.7702C60.835 53.7333 60.6092 54.7544 60.5568 55.7914C60.5245 56.3253 60.6489 56.857 60.9149 57.3219C61.1809 57.7868 61.577 58.1647 62.055 58.4097C62.7573 58.6017 63.4987 58.6017 64.201 58.4097L76.2069 56.5366C75.2221 51.8375 75.9392 46.9434 78.2315 42.7196C78.9808 41.7094 79.3466 40.4679 79.2641 39.2151C78.9807 37.9462 77.7052 37.2009 76.5106 36.5967C73.8515 35.3482 71.0408 34.4477 68.149 33.9179C64.8894 33.3137 63.128 32.3469 63.0065 35.7306C62.7636 41.6723 63.128 46.9292 61.2249 52.7702Z" fill="#DDAA8E"/>
<path d="M56.0218 22.9812C53.9972 26.5463 53.6732 31.5614 56.5684 34.5222C58.4286 36.1138 60.665 37.2088 63.0674 37.7045L75.6199 41.4105C79.3737 41.9484 83.2027 41.3077 86.573 39.5777C88.7394 38.0067 86.573 36.4155 86.573 33.7568C86.573 29.4667 82.6656 23.5049 81.1876 19.4767C79.7096 15.4484 79.4464 13.5148 75.3567 12.0848C68.2099 9.54699 59.4029 17.241 56.0218 22.9812Z" fill="#FDD9C5"/>
<path fill-rule="evenodd" clip-rule="evenodd" d="M51.8704 37.3419C52.8491 39.4539 54.2233 41.3611 55.9196 42.9614C56.7914 43.744 57.8671 44.2668 59.0236 44.4698C60.18 44.6728 61.3706 44.5479 62.4591 44.1094C65.1315 42.76 65.7996 39.3561 66.1843 36.3953C66.6297 32.8102 69.4844 34.784 69.9298 31.1988C70.1121 29.6681 67.9052 22.5784 68.4924 21.1282C69.9906 17.7243 73.4729 15.4685 74.9104 12.0847C75.7236 9.96679 75.7113 7.62285 74.8759 5.51344C74.0405 3.40404 72.4424 1.68168 70.3955 0.684769C68.2904 -0.168516 65.941 -0.209962 63.8068 0.568537C61.6726 1.34704 59.907 2.88949 58.8553 4.8943C57.438 7.85507 57.9847 11.5409 56.284 14.3809C54.8668 16.7777 52.6397 16.5964 50.6151 18.1271C44.3388 22.7596 49.0157 32.2261 51.8704 37.3419Z" fill="#26256C"/>
<path d="M60.2925 32.8707C60.0995 31.6482 60.3997 30.3994 61.1277 29.396C61.8557 28.3926 62.9526 27.7159 64.1797 27.5131C66.6498 27.1707 70.0308 35.2474 69.2412 36.2545C64.7871 37.1205 61.3655 35.6099 60.2925 32.8707Z" fill="#DDAA8E"/>
<path d="M141.339 33.7367C138.525 42.2162 133.241 54.7642 126.783 60.9275C120.324 67.0907 110.808 70.6758 102.143 68.3193C98.1486 67.061 94.412 65.1034 91.109 62.5388L84.2051 84.5935C88.1276 86.2176 92.1946 87.4718 96.3527 88.3398C107.711 90.656 120.284 89.2663 129.536 82.2974C135.432 77.5847 139.943 71.3785 142.595 64.3313C145.409 57.4027 148.021 43.8275 149.438 36.4759C149.823 34.3611 141.967 31.8233 141.339 33.7367Z" fill="#FDD9C5"/>
<path fill-rule="evenodd" clip-rule="evenodd" d="M87.0588 59.6183C82.3414 56.2346 77.0572 53.0321 71.2264 52.9314C57.9652 52.73 56.6087 67.1713 64.9096 74.6437C68.0882 77.5038 72.7043 79.1755 76.4903 81.0889C79.0008 82.3578 81.5316 83.526 84.1433 84.5734L94.7523 63.6063C93.4565 62.6597 88.476 60.5851 87.0588 59.6183Z" fill="#698ED5"/>
<path d="M140.874 25.2572H151.746C152.086 25.2389 152.413 25.1169 152.681 24.908C152.949 24.699 153.146 24.4131 153.245 24.089L159.946 1.16822C160.006 1.02953 160.027 0.87754 160.007 0.727986C159.988 0.578433 159.929 0.436752 159.836 0.317614C159.743 0.198476 159.62 0.106211 159.479 0.0503718C159.338 -0.00546704 159.185 -0.0228498 159.035 2.32905e-05H148.163C147.825 0.0169525 147.501 0.135939 147.233 0.341085C146.966 0.546231 146.767 0.827767 146.665 1.14808L140.044 24.1696C140.006 24.2971 139.999 24.4317 140.022 24.5627C140.046 24.6936 140.101 24.817 140.182 24.923C140.263 25.0289 140.368 25.1144 140.488 25.1725C140.608 25.2306 140.741 25.2596 140.874 25.2572Z" fill="#26256C"/>
<path d="M139.82 25.2571H150.692C151.032 25.2388 151.358 25.1168 151.626 24.9079C151.894 24.6989 152.091 24.413 152.19 24.0889L158.81 1.16814C158.869 1.03117 158.889 0.881375 158.871 0.733849C158.852 0.586324 158.795 0.44628 158.704 0.327828C158.614 0.209375 158.494 0.116699 158.356 0.0591359C158.218 0.00157306 158.068 -0.0188426 157.92 -5.4114e-05H147.108C146.771 0.0168751 146.446 0.135861 146.179 0.341008C145.911 0.546154 145.713 0.82769 145.61 1.148L138.969 24.1695C138.93 24.2987 138.923 24.4352 138.948 24.5677C138.973 24.7002 139.03 24.8249 139.113 24.9313C139.196 25.0377 139.303 25.1228 139.426 25.1795C139.549 25.2362 139.684 25.2628 139.82 25.2571Z" fill="#E9EFF4"/>
<path d="M140.712 24.0085H150.511C150.814 23.9893 151.104 23.8788 151.343 23.6918C151.581 23.5047 151.757 23.2499 151.847 22.9611L157.921 2.29615C157.968 2.17738 157.985 2.04867 157.97 1.92177C157.954 1.79488 157.907 1.67383 157.833 1.56969C157.758 1.46555 157.659 1.38162 157.543 1.32557C157.428 1.26952 157.3 1.24313 157.172 1.2488H147.271C146.968 1.268 146.678 1.37845 146.439 1.56551C146.201 1.75256 146.025 2.00738 145.935 2.29615L139.861 22.9813C139.813 23.1076 139.799 23.2444 139.821 23.3779C139.843 23.5113 139.9 23.6366 139.986 23.7409C140.072 23.8453 140.185 23.9251 140.313 23.9721C140.44 24.019 140.578 24.0316 140.712 24.0085Z" fill="#698ED5"/>
<path d="M142.674 22.3568C143.12 20.9872 145.63 17.3215 146.946 13.837C149.396 12.9911 148.1 19.9801 147.27 20.8059C149.472 20.2472 151.495 19.1408 153.149 17.5905C154.803 16.0403 156.033 14.0971 156.725 11.9437C157.606 12.9133 158.293 14.0412 158.75 15.267C158.891 17.7444 157.292 20.0607 157.413 22.5582C157.515 24.4112 158.385 25.3981 157.818 27.1706C156.648 29.9403 154.638 32.2778 152.068 33.8575C150.86 34.8424 149.491 35.6123 148.019 36.1334C139.698 38.631 141.297 26.5663 142.674 22.3568Z" fill="#FDD9C5"/>
</g>
<defs>
<clipPath id="clip0">
<rect width="288" height="191" fill="white"/>
</clipPath>
</defs>
</svg>
