<svg width="487" height="152" viewBox="0 0 487 152" fill="none" xmlns="http://www.w3.org/2000/svg">
<g clip-path="url(#clip0)">
<path fill-rule="evenodd" clip-rule="evenodd" d="M466.6 45.1004H484.2L486.1 36.9004H427.6L425.6 45.1004H443L430 105.2H453.6L466.6 45.1004ZM405.6 105.1H382L396.8 36.9004H420.5L405.6 105.1ZM345.8 105.1H370L384.9 36.9004H356.8L335.8 75.4004L332.4 36.9004H304.5L289.7 105.1H299.5L310 57.1004L314.9 105.1H329.8L355.7 58.7004L345.8 105.1ZM249.6 36.9004H295.6L293.8 45.1004H271.5L267 65.8004H285.7L283.9 73.9004H265.2L260.2 96.9004H282.5L280.9 105.2H234.9L249.6 36.9004ZM207.1 66.7004C205.8 67.9004 204.2 68.5004 202.3 68.5004H197.2L202.7 44.2004H207.6C209.8 44.2004 211.2 44.9004 211.9 46.2004C212.6 47.5004 212.9 49.1004 212.9 50.9004C212.9 52.4004 212.7 54.2004 212.4 56.3004C212 58.3004 211.4 60.2004 210.5 62.0004C209.6 63.8004 208.5 65.4004 207.1 66.7004ZM230.1 64.8004C232.5 61.2004 233.7 57.3004 233.7 53.1004C233.7 49.7004 233 46.9004 231.7 44.8004C230.4 42.7004 228.6 41.0004 226.3 39.9004C224.1 38.7004 221.5 37.9004 218.5 37.5004C215.5 37.1004 212.3 36.9004 209 36.9004H180.3L165.5 105.1H189.1L195.5 75.3004H196.7L206.3 105.1H230.7L218.2 73.0004C223.8 71.1004 227.7 68.4004 230.1 64.8004Z" fill="#26246C"/>
<path fill-rule="evenodd" clip-rule="evenodd" d="M7.6001 4.50005C18.1001 -3.39995 36.4001 1.60005 36.5001 1.60005L138.8 29.4001C139.3 29.5001 139.8 29.8001 140.3 30.0001C143.8 31.4001 158.4 38.1 158.1 52C157.7 66.5 146.5 76.2001 145.4 77.0001C145.5 77.0001 145.3 77.0001 145.4 77.0001L61.0001 143.3C60.8001 143.5 60.2001 144.1 60.0001 144.2C57.9001 145.9 46.2001 153.4 30.9001 150.1C16.5001 146.9 12.0001 125.6 12.0001 125.6L9.3001 102.6L4.3001 62.7001L1.4001 40.3C1.4001 39.4 0.500101 33.2001 0.500101 32.9001C0.200101 30.2001 -2.0999 11.8001 7.6001 4.50005Z" fill="white"/>
<path fill-rule="evenodd" clip-rule="evenodd" d="M0.100098 28.2002H133.4L132.8 40.4002L1.4001 40.3002L0.500098 33.5002L0.100098 28.2002Z" fill="#DE2027"/>
<path fill-rule="evenodd" clip-rule="evenodd" d="M9.2002 102.6L4.2002 62.7002H92.8002L9.2002 102.6Z" fill="#DE2027"/>
<path fill-rule="evenodd" clip-rule="evenodd" d="M95.4998 111.2L66.7998 125.3L67.5998 127.4H81.3998L95.4998 116.2V111.2Z" fill="#DE2027"/>
<path fill-rule="evenodd" clip-rule="evenodd" d="M94.9998 64.8002V53.1002H102.8C104.6 53.1002 105.9 53.7002 106.7 54.9002C107.5 56.1002 107.9 57.6002 107.9 59.3002C107.9 61.1002 107.4 62.4002 106.3 63.4002C105.3 64.3002 104.1 64.8002 102.7 64.8002H94.9998ZM66.6998 60.5002C66.1998 61.6002 65.5998 62.7002 64.7998 63.7002C62.8998 66.0002 60.8998 67.7002 58.6998 68.7002C61.6998 69.8002 64.0998 71.8002 66.0998 74.7002C66.1998 74.8002 66.2998 74.9002 66.2998 75.0002C66.3998 75.2002 66.4998 75.3002 66.5998 75.5002V60.5002H66.6998ZM24.6998 89.0002V78.7002H34.9998C36.5998 78.7002 37.7998 79.2002 38.6998 80.2002C39.6998 81.2002 40.0998 82.3002 40.0998 83.7002V83.8002C40.0998 85.1002 39.6998 86.4002 38.7998 87.5002C37.9998 88.5002 36.6998 89.0002 34.9998 89.0002H24.6998ZM38.5998 56.6002C38.5998 57.9002 38.1998 58.9002 37.3998 59.9002C36.6998 60.8002 35.4998 61.3002 34.0998 61.3002H24.7998V51.8002H34.0998C35.5998 51.8002 36.6998 52.3002 37.3998 53.4002C38.1998 54.2002 38.5998 55.3002 38.5998 56.6002ZM81.3998 127.4H69.5998C68.7998 127.4 68.0998 127.1 67.4998 126.5C67.0998 126.1 66.8998 125.7 66.6998 125.2C66.5998 125 66.5998 124.9 66.5998 124.5V95.4002C62.2998 103.2 52.6998 107.1 37.7998 107.1L9.59983 107.2L11.9998 126.1C11.9998 126.1 12.1998 127.3 12.5998 128.8C13.4998 132.2 15.3998 138.1 19.3998 143.1C21.7998 146 24.8998 148.7 28.8998 150C44.7998 154.5 57.9998 145.9 60.0998 144.2C60.1998 144.1 60.2998 144 60.3998 143.9C60.4998 143.8 60.5998 143.8 60.5998 143.7L81.3998 127.4ZM36.2998 1.50016C36.0998 1.50016 17.9998 -3.39984 7.49983 4.50016C0.199829 10.0002 -0.300171 22.2002 0.099829 29.0002C0.199829 30.5002 0.299829 31.7002 0.399829 32.6002C0.399829 33.0002 0.499829 33.3002 0.499829 33.6002H36.7998C47.2998 33.6002 54.8998 35.3002 59.8998 38.9002C63.2998 41.3002 65.5998 44.4002 66.6998 48.4002V36.4002C66.6998 35.6002 66.8998 34.9002 67.4998 34.4002C68.0998 33.8002 68.7998 33.5002 69.5998 33.5002H102.7C113.4 33.5002 121.7 35.7002 127.7 40.1002C133.7 44.4002 136.6 50.8002 136.6 59.3002C136.6 67.8002 133.6 74.1002 127.6 78.1002C121.7 82.2002 115.7 84.2002 102.6 84.2002C102 84.2002 95.3998 84.2002 95.3998 84.2002V116.2L145 77.3002C145.1 77.3002 145.1 77.2002 145.2 77.2002C146.3 76.4002 157.8 66.8002 158.1 51.9002C158.4 38.1002 143.1 31.1002 139.7 29.7002C139.2 29.5002 138.8 29.4002 138.3 29.2002L39.2998 2.20016L36.2998 1.50016Z" fill="#26246C"/>
<path fill-rule="evenodd" clip-rule="evenodd" d="M39.3001 2.30029L93.4001 28.8003L0.100098 29.0003C0.200098 30.5003 0.300098 31.7003 0.400098 32.6003L0.500098 33.6003H36.8001C44.4001 33.6003 50.6001 34.5003 55.3001 36.5003C57.1001 37.2003 58.7001 38.1003 60.0001 39.1003C62.6001 40.9003 64.5001 43.2003 65.7001 46.0003C66.1001 46.8003 66.4001 47.6003 66.6001 48.5003V36.5003C66.6001 36.0003 66.7001 35.5003 67.0001 35.0003C67.1001 34.8003 67.3001 34.6003 67.5001 34.5003C68.1001 33.9003 68.8001 33.7003 69.6001 33.7003H102.8C103.9 33.7003 105 33.7003 106.1 33.8003C115.1 34.2003 122.4 36.4003 127.7 40.3003C133.7 44.6003 136.6 50.9003 136.6 59.4003C136.6 67.9003 133.7 74.1003 127.7 78.2003C125.5 79.7003 123 80.9003 120.1 81.9003C115.4 83.5003 109.8 84.3003 103.3 84.4003L95.5001 88.0003V111.2L112.1 103.2L145 77.3003C145.1 77.3003 145.2 77.1003 145.3 77.1003C146.4 76.3003 157.9 66.7003 158.2 51.9003C158.5 38.1003 143.2 31.1003 139.8 29.7003C139.4 29.5003 138.8 29.4003 138.4 29.2003L39.3001 2.30029Z" fill="#4C6CA7"/>
<path fill-rule="evenodd" clip-rule="evenodd" d="M23.1001 146.7L66.7001 125.2C66.7001 125.2 66.6001 124.9 66.6001 124.6C66.6001 124.5 66.6001 124.4 66.6001 124.4V102.2L12.6001 128.7C13.0001 130.3 13.7001 132.5 14.6001 134.7C15.7001 137.4 17.3001 140.3 19.4001 142.9C20.5001 144.4 21.7001 145.6 23.1001 146.7Z" fill="#4C6CA7"/>
<path fill-rule="evenodd" clip-rule="evenodd" d="M36.3002 60.7002C35.7002 61.0002 34.9002 61.2002 34.0002 61.2002H24.7002V51.7002H33.9002C35.4002 51.7002 36.5002 52.2002 37.2002 53.3002C38.0002 54.3002 38.4002 55.4002 38.4002 56.7002C38.4002 58.0002 38.0002 59.0002 37.2002 60.0002C37.0002 60.2002 36.7002 60.5002 36.3002 60.7002Z" fill="#516EA7"/>
<path fill-rule="evenodd" clip-rule="evenodd" d="M66.7 60.5C66.4 61.2 65.9 62.1 65.5 62.7H66.7V60.5Z" fill="#516EA7"/>
<path fill-rule="evenodd" clip-rule="evenodd" d="M104.2 53.3001C105.2 53.6001 106 54.1001 106.6 54.9001C107.4 56.1001 107.8 57.6001 107.8 59.3001C107.8 60.6001 107.5 61.8001 106.9 62.6001H94.8999V53.1001H102.8C103.3 53.1001 103.8 53.2001 104.2 53.3001Z" fill="#516EA7"/>
</g>
<defs>
<clipPath id="clip0">
<rect width="486.1" height="151.2" fill="white"/>
</clipPath>
</defs>
</svg>
