<svg width="486" height="486" viewBox="0 0 486 486" fill="none" xmlns="http://www.w3.org/2000/svg">
<g clip-path="url(#clip0)">
<g clip-path="url(#clip1)">
<path fill-rule="evenodd" clip-rule="evenodd" d="M466.6 212.1H484.2L486.1 203.9H427.6L425.6 212.1H443L430 272.2H453.6L466.6 212.1ZM405.6 272.1H382L396.8 203.9H420.5L405.6 272.1ZM345.8 272.1H370L384.9 203.9H356.8L335.8 242.4L332.4 203.9H304.5L289.7 272.1H299.5L310 224.1L314.9 272.1H329.8L355.7 225.7L345.8 272.1ZM249.6 203.9H295.6L293.8 212.1H271.5L267 232.8H285.7L283.9 240.9H265.2L260.2 263.9H282.5L280.9 272.2H234.9L249.6 203.9ZM207.1 233.7C205.8 234.9 204.2 235.5 202.3 235.5H197.2L202.7 211.2H207.6C209.8 211.2 211.2 211.9 211.9 213.2C212.6 214.5 212.9 216.1 212.9 217.9C212.9 219.4 212.7 221.2 212.4 223.3C212 225.3 211.4 227.2 210.5 229C209.6 230.8 208.5 232.4 207.1 233.7ZM230.1 231.8C232.5 228.2 233.7 224.3 233.7 220.1C233.7 216.7 233 213.9 231.7 211.8C230.4 209.7 228.6 208 226.3 206.9C224.1 205.7 221.5 204.9 218.5 204.5C215.5 204.1 212.3 203.9 209 203.9H180.3L165.5 272.1H189.1L195.5 242.3H196.7L206.3 272.1H230.7L218.2 240C223.8 238.1 227.7 235.4 230.1 231.8Z" fill="#26246C"/>
<path fill-rule="evenodd" clip-rule="evenodd" d="M7.6001 171.5C18.1001 163.6 36.4001 168.6 36.5001 168.6L138.8 196.4C139.3 196.5 139.8 196.8 140.3 197C143.8 198.4 158.4 205.1 158.1 219C157.7 233.5 146.5 243.2 145.4 244C145.5 244 145.3 244 145.4 244L61.0001 310.3C60.8001 310.5 60.2001 311.1 60.0001 311.2C57.9001 312.9 46.2001 320.4 30.9001 317.1C16.5001 313.9 12.0001 292.6 12.0001 292.6L9.3001 269.6L4.3001 229.7L1.4001 207.3C1.4001 206.4 0.500101 200.2 0.500101 199.9C0.200101 197.2 -2.0999 178.8 7.6001 171.5Z" fill="white"/>
<path fill-rule="evenodd" clip-rule="evenodd" d="M0.100098 195.2H133.4L132.8 207.4L1.4001 207.3L0.500098 200.5L0.100098 195.2Z" fill="#DE2027"/>
<path fill-rule="evenodd" clip-rule="evenodd" d="M9.2002 269.6L4.2002 229.7H92.8002L9.2002 269.6Z" fill="#DE2027"/>
<path fill-rule="evenodd" clip-rule="evenodd" d="M95.4998 278.2L66.7998 292.3L67.5998 294.4H81.3998L95.4998 283.2V278.2Z" fill="#DE2027"/>
<path fill-rule="evenodd" clip-rule="evenodd" d="M94.9998 231.8V220.1H102.8C104.6 220.1 105.9 220.7 106.7 221.9C107.5 223.1 107.9 224.6 107.9 226.3C107.9 228.1 107.4 229.4 106.3 230.4C105.3 231.3 104.1 231.8 102.7 231.8H94.9998ZM66.6998 227.5C66.1998 228.6 65.5998 229.7 64.7998 230.7C62.8998 233 60.8998 234.7 58.6998 235.7C61.6998 236.8 64.0998 238.8 66.0998 241.7C66.1998 241.8 66.2998 241.9 66.2998 242C66.3998 242.2 66.4998 242.3 66.5998 242.5V227.5H66.6998ZM24.6998 256V245.7H34.9998C36.5998 245.7 37.7998 246.2 38.6998 247.2C39.6998 248.2 40.0998 249.3 40.0998 250.7V250.8C40.0998 252.1 39.6998 253.4 38.7998 254.5C37.9998 255.5 36.6998 256 34.9998 256H24.6998ZM38.5998 223.6C38.5998 224.9 38.1998 225.9 37.3998 226.9C36.6998 227.8 35.4998 228.3 34.0998 228.3H24.7998V218.8H34.0998C35.5998 218.8 36.6998 219.3 37.3998 220.4C38.1998 221.2 38.5998 222.3 38.5998 223.6ZM81.3998 294.4H69.5998C68.7998 294.4 68.0998 294.1 67.4998 293.5C67.0998 293.1 66.8998 292.7 66.6998 292.2C66.5998 292 66.5998 291.9 66.5998 291.5V262.4C62.2998 270.2 52.6998 274.1 37.7998 274.1L9.59983 274.2L11.9998 293.1C11.9998 293.1 12.1998 294.3 12.5998 295.8C13.4998 299.2 15.3998 305.1 19.3998 310.1C21.7998 313 24.8998 315.7 28.8998 317C44.7998 321.5 57.9998 312.9 60.0998 311.2C60.1998 311.1 60.2998 311 60.3998 310.9C60.4998 310.8 60.5998 310.8 60.5998 310.7L81.3998 294.4ZM36.2998 168.5C36.0998 168.5 17.9998 163.6 7.49983 171.5C0.199829 177 -0.300171 189.2 0.099829 196C0.199829 197.5 0.299829 198.7 0.399829 199.6C0.399829 200 0.499829 200.3 0.499829 200.6H36.7998C47.2998 200.6 54.8998 202.3 59.8998 205.9C63.2998 208.3 65.5998 211.4 66.6998 215.4V203.4C66.6998 202.6 66.8998 201.9 67.4998 201.4C68.0998 200.8 68.7998 200.5 69.5998 200.5H102.7C113.4 200.5 121.7 202.7 127.7 207.1C133.7 211.4 136.6 217.8 136.6 226.3C136.6 234.8 133.6 241.1 127.6 245.1C121.7 249.2 115.7 251.2 102.6 251.2C102 251.2 95.3998 251.2 95.3998 251.2V283.2L145 244.3C145.1 244.3 145.1 244.2 145.2 244.2C146.3 243.4 157.8 233.8 158.1 218.9C158.4 205.1 143.1 198.1 139.7 196.7C139.2 196.5 138.8 196.4 138.3 196.2L39.2998 169.2L36.2998 168.5Z" fill="#26246C"/>
<path fill-rule="evenodd" clip-rule="evenodd" d="M39.3001 169.3L93.4001 195.8L0.100098 196C0.200098 197.5 0.300098 198.7 0.400098 199.6L0.500098 200.6H36.8001C44.4001 200.6 50.6001 201.5 55.3001 203.5C57.1001 204.2 58.7001 205.1 60.0001 206.1C62.6001 207.9 64.5001 210.2 65.7001 213C66.1001 213.8 66.4001 214.6 66.6001 215.5V203.5C66.6001 203 66.7001 202.5 67.0001 202C67.1001 201.8 67.3001 201.6 67.5001 201.5C68.1001 200.9 68.8001 200.7 69.6001 200.7H102.8C103.9 200.7 105 200.7 106.1 200.8C115.1 201.2 122.4 203.4 127.7 207.3C133.7 211.6 136.6 217.9 136.6 226.4C136.6 234.9 133.7 241.1 127.7 245.2C125.5 246.7 123 247.9 120.1 248.9C115.4 250.5 109.8 251.3 103.3 251.4L95.5001 255V278.2L112.1 270.2L145 244.3C145.1 244.3 145.2 244.1 145.3 244.1C146.4 243.3 157.9 233.7 158.2 218.9C158.5 205.1 143.2 198.1 139.8 196.7C139.4 196.5 138.8 196.4 138.4 196.2L39.3001 169.3Z" fill="#4C6CA7"/>
<path fill-rule="evenodd" clip-rule="evenodd" d="M23.1001 313.7L66.7001 292.2C66.7001 292.2 66.6001 291.9 66.6001 291.6C66.6001 291.5 66.6001 291.4 66.6001 291.4V269.2L12.6001 295.7C13.0001 297.3 13.7001 299.5 14.6001 301.7C15.7001 304.4 17.3001 307.3 19.4001 309.9C20.5001 311.4 21.7001 312.6 23.1001 313.7Z" fill="#4C6CA7"/>
<path fill-rule="evenodd" clip-rule="evenodd" d="M36.3002 227.7C35.7002 228 34.9002 228.2 34.0002 228.2H24.7002V218.7H33.9002C35.4002 218.7 36.5002 219.2 37.2002 220.3C38.0002 221.3 38.4002 222.4 38.4002 223.7C38.4002 225 38.0002 226 37.2002 227C37.0002 227.2 36.7002 227.5 36.3002 227.7Z" fill="#516EA7"/>
<path fill-rule="evenodd" clip-rule="evenodd" d="M66.7 227.5C66.4 228.2 65.9 229.1 65.5 229.7H66.7V227.5Z" fill="#516EA7"/>
<path fill-rule="evenodd" clip-rule="evenodd" d="M104.2 220.3C105.2 220.6 106 221.1 106.6 221.9C107.4 223.1 107.8 224.6 107.8 226.3C107.8 227.6 107.5 228.8 106.9 229.6H94.8999V220.1H102.8C103.3 220.1 103.8 220.2 104.2 220.3Z" fill="#516EA7"/>
</g>
</g>
<defs>
<clipPath id="clip0">
<rect width="486" height="486" fill="white"/>
</clipPath>
<clipPath id="clip1">
<rect width="486.1" height="151.2" fill="white" transform="translate(0 167)"/>
</clipPath>
</defs>
</svg>
